# xmcd CD database file
#
# Track frame offsets:
#	150
#	28269
#	60730
#	89000
#	109170
#	142590
#	165112
#	179760
#	204622
#	221907
#	240812
#	265680
#	284002
#	304080
#	330487
#
# Disc length: 4587 seconds
#
# Revision: 0
# Processed by: cddbd v1.4PL0 Copyright (c) Steve Scherf et al.
# Submitted via: CDex 1.50beta10
#
DISCID=d811e90f
DTITLE=Various Artist - Latin Hot! Hot Latin Salsa From The Big Apple
DYEAR=2000
DGENRE=Salsa
TTITLE0=Juán Pachanga - Fania Allstars
TTITLE1=Las Caras Lindas - Ismael Rivera
TTITLE2=Agúzate - Richie Ray and Bobby Cruz
TTITLE3=La Cartera - Orquesta Harlow
TTITLE4=Pedro Navaja - Rubén Blades
TTITLE5=Tiempo Pa' Matar - Willie Colón
TTITLE6=Mentira - Hector Lavoe
TTITLE7=Salúd, Dinero Y Amor - Orquesta Novel
TTITLE8=Cúcala - Celia Cruz and Johnny Pacheo
TTITLE9=Anacaona - Cheo Feliciano
TTITLE10=Mi Gente - Hector Lavoe
TTITLE11=La Esencia Del Guaguancó - Johnny Pacheo and Pete "El Conde" Rodrigues
TTITLE12=Mírame De Frente - Ray Barretto
TTITLE13=Trátame Como Suy - Tito Puente
TTITLE14=Guantanamera - La Lupe
EXTD=YEAR: 2000
EXTT0=
EXTT1=
EXTT2=
EXTT3=
EXTT4=
EXTT5=
EXTT6=
EXTT7=
EXTT8=
EXTT9=
EXTT10=
EXTT11=
EXTT12=
EXTT13=
EXTT14=
PLAYORDER=
